<?xml version="1.0" standalone="no"?>
<!DOCTYPE svg PUBLIC "-//W3C//DTD SVG 20010904//EN"
 "http://www.w3.org/TR/2001/REC-SVG-20010904/DTD/svg10.dtd">
<svg version="1.0" xmlns="http://www.w3.org/2000/svg"
 width="225.000000pt" height="225.000000pt" viewBox="0 0 225.000000 225.000000"
 preserveAspectRatio="xMidYMid meet">

<g transform="translate(0.000000,225.000000) scale(0.100000,-0.100000)"
fill="#000000" stroke="none">
<path d="M1610 1170 c0 -29 -4 -40 -15 -40 -8 0 -15 6 -15 13 0 6 -4 18 -9 26
-8 12 -15 11 -46 -3 -35 -17 -40 -17 -81 -1 -60 23 -98 17 -103 -15 -3 -23 -4
-24 -12 -5 -4 11 -8 -59 -8 -162 l-1 -181 150 -1 150 -2 0 206 c0 113 -2 205
-5 205 -3 0 -5 -18 -5 -40z m-190 -20 c0 -23 -6 -24 -43 -7 -37 17 -34 27 8
27 28 0 35 -4 35 -20z"/>
<path d="M913 1118 c0 -7 -1 -47 -2 -88 -2 -52 -5 -69 -11 -55 -6 14 -9 15
-10 5 0 -8 -9 0 -19 19 -17 33 -19 33 -25 13 -9 -28 -20 -28 -34 1 -6 12 -11
16 -11 10 -1 -7 -14 -13 -30 -13 -16 0 -32 -6 -34 -12 -4 -10 -8 -9 -16 2 -8
12 -13 12 -30 -4 -19 -17 -21 -17 -21 -3 0 23 -18 22 -20 0 -1 -10 -4 -58 -6
-106 l-5 -88 150 2 151 2 0 163 c0 133 -3 164 -14 164 -8 0 -14 -6 -13 -12z"/>
<path d="M134 566 c-3 -7 -4 -58 -2 -112 2 -80 6 -99 18 -99 11 0 16 13 18 48
l3 47 50 0 49 0 0 -48 c0 -37 4 -49 15 -49 12 0 15 20 15 114 0 94 -3 113 -15
113 -11 0 -15 -12 -15 -50 l0 -50 -50 0 -50 0 0 50 c0 38 -4 50 -15 50 -9 0
-18 -6 -21 -14z"/>
<path d="M357 514 c-4 -4 -7 -32 -7 -61 0 -44 5 -58 25 -78 28 -29 61 -32 93
-9 19 13 22 24 22 85 0 55 -3 69 -15 69 -12 0 -15 -14 -15 -64 0 -54 -3 -66
-19 -71 -38 -12 -50 4 -53 68 -3 56 -14 78 -31 61z"/>
<path d="M547 513 c-10 -9 -9 -151 1 -157 19 -11 31 14 34 69 3 56 4 60 28 60
24 0 25 -4 30 -65 7 -86 30 -95 30 -12 0 60 11 82 41 82 22 0 29 -20 29 -84 0
-40 4 -53 15 -53 22 0 21 129 -1 151 -18 19 -55 21 -72 4 -9 -9 -15 -9 -24 0
-15 15 -50 16 -65 1 -8 -8 -13 -8 -17 0 -8 12 -20 14 -29 4z"/>
<path d="M836 499 c-20 -16 -26 -29 -26 -60 0 -67 57 -107 111 -78 14 7 24 7
33 0 21 -17 26 -2 26 75 0 70 -13 102 -30 74 -6 -9 -13 -9 -28 -1 -31 16 -56
13 -86 -10z m100 -34 c21 -33 6 -72 -31 -81 -50 -13 -86 53 -49 90 24 24 61
20 80 -9z"/>
<path d="M1034 507 c-10 -27 1 -150 14 -155 8 -2 12 12 12 50 0 64 16 91 51
86 22 -3 24 -8 29 -67 3 -39 10 -66 18 -69 19 -6 16 132 -4 152 -19 19 -55 21
-73 4 -11 -10 -14 -10 -18 0 -6 16 -22 15 -29 -1z"/>
<path d="M1225 496 c-21 -32 -11 -51 37 -69 61 -24 34 -54 -32 -36 -8 2 -15
-2 -15 -11 0 -8 14 -18 32 -23 42 -13 83 12 83 49 0 21 -8 29 -40 41 -49 19
-55 48 -10 41 34 -5 51 9 29 23 -27 17 -68 10 -84 -15z"/>
<path d="M1385 495 c-41 -40 -33 -105 16 -130 36 -19 59 -19 88 1 31 22 13 37
-26 22 -28 -10 -35 -9 -52 7 -25 22 -27 57 -5 79 18 19 55 21 71 5 11 -11 33
-5 33 10 0 12 -47 31 -76 31 -14 0 -36 -11 -49 -25z"/>
<path d="M1564 496 c-38 -32 -38 -90 1 -123 27 -24 46 -27 80 -14 11 5 25 4
32 -1 23 -19 33 4 33 77 0 74 -10 96 -33 76 -8 -6 -18 -6 -27 -1 -25 16 -58
11 -86 -14z m95 -20 c7 -8 11 -30 9 -48 -6 -67 -98 -57 -98 12 0 14 5 31 12
38 16 16 63 15 77 -2z"/>
<path d="M1760 410 c0 -91 3 -110 15 -110 10 0 15 11 15 35 0 38 2 40 32 24
45 -24 108 21 108 78 0 62 -66 102 -121 73 -13 -7 -19 -7 -19 0 0 5 -7 10 -15
10 -12 0 -15 -19 -15 -110z m126 55 c21 -33 6 -72 -31 -81 -50 -13 -86 53 -49
90 24 24 61 20 80 -9z"/>
<path d="M1986 499 c-26 -21 -35 -65 -20 -104 16 -42 105 -55 135 -19 16 20 2
31 -21 16 -27 -16 -55 -15 -74 4 -28 27 -18 34 49 34 62 0 65 1 65 24 0 31
-43 66 -80 66 -15 0 -39 -9 -54 -21z m92 -21 c22 -22 13 -28 -38 -28 -27 0
-50 4 -50 8 0 16 25 32 50 32 14 0 31 -5 38 -12z"/>
</g>
</svg>
